<svg xmlns="http://www.w3.org/2000/svg" width="480" height="226" viewBox="0 0 480 226" role="img" aria-label="Tariqul Islam Tuhin GitHub statistics">
  <style>
    text { font-family: -apple-system, BlinkMacSystemFont, "Segoe UI", Roboto, Helvetica, Arial, sans-serif; }
    .num { font-variant-numeric: tabular-nums; }
    .title { fill: #1f2328; font-weight: 600; }
    .sub   { fill: #656d76; }
    .muted { fill: #57606a; }
    .value { fill: #1f2328; font-weight: 600; }
    .rule  { stroke: #d0d7de; }
    @media (prefers-color-scheme: dark) {
      .title, .value { fill: #e6edf3; }
      .sub   { fill: #7d8590; }
      .muted { fill: #8b949e; }
      .rule  { stroke: #30363d; }
    }
  </style>
  <rect width="480" height="226" fill="transparent" />
  <text class="title" x="24" y="38" font-size="17">Tariqul Islam Tuhin</text>
  <text class="sub" x="456" y="38" font-size="12" text-anchor="end">@TariqulislamTuhin</text>
  <line class="rule" x1="24" y1="54" x2="456" y2="54" />
  <line class="rule" x1="240" y1="70" x2="240" y2="168" stroke-opacity="0.6" />
  <text class="muted" x="24" y="88" font-size="13">Total commits</text><text class="value num" x="224" y="88" font-size="16" text-anchor="end">136</text>
    <text class="muted" x="24" y="122" font-size="13">Pull requests</text><text class="value num" x="224" y="122" font-size="16" text-anchor="end">9</text>
    <text class="muted" x="24" y="156" font-size="13">Contributions (1yr)</text><text class="value num" x="224" y="156" font-size="16" text-anchor="end">6,951</text>
  <text class="muted" x="256" y="88" font-size="13">PR reviews</text><text class="value num" x="456" y="88" font-size="16" text-anchor="end">0</text>
    <text class="muted" x="256" y="122" font-size="13">Repos contributed to</text><text class="value num" x="456" y="122" font-size="16" text-anchor="end">2</text>
    <text class="muted" x="256" y="156" font-size="13">Followers</text><text class="value num" x="456" y="156" font-size="16" text-anchor="end">26</text>
  <line class="rule" x1="24" y1="184" x2="456" y2="184" />
  <text class="sub" x="24" y="210" font-size="10" letter-spacing="1">LANGUAGES</text>
  <circle cx="108" cy="206" r="4" fill="#3178c6" /><text class="muted" x="118" y="210" font-size="12">TypeScript</text>
  <circle cx="216" cy="206" r="4" fill="#4F5D95" /><text class="muted" x="226" y="210" font-size="12">PHP</text>
  <circle cx="273.6" cy="206" r="4" fill="#dea584" /><text class="muted" x="283.6" y="210" font-size="12">Rust</text>
  <circle cx="338.40000000000003" cy="206" r="4" fill="#178600" /><text class="muted" x="348.40000000000003" y="210" font-size="12">C#</text>
  <circle cx="388.8" cy="206" r="4" fill="#3572A5" /><text class="muted" x="398.8" y="210" font-size="12">Python</text>
</svg>
